<?xml version="1.0" standalone="no"?>
<!DOCTYPE svg PUBLIC "-//W3C//DTD SVG 20010904//EN"
 "http://www.w3.org/TR/2001/REC-SVG-20010904/DTD/svg10.dtd">
<svg version="1.0" xmlns="http://www.w3.org/2000/svg"
 width="16.000000pt" height="16.000000pt" viewBox="0 0 16.000000 16.000000"
 preserveAspectRatio="xMidYMid meet">

<g transform="translate(0.000000,16.000000) scale(0.100000,-0.100000)"
fill="#000000" stroke="none">
<path d="M31 134 c-23 -30 -26 -46 -11 -75 7 -13 7 -19 0 -19 -5 0 -10 -4 -10
-8 0 -4 32 -8 70 -8 39 0 70 4 70 8 0 4 -5 8 -10 8 -7 0 -7 6 0 19 16 30 12
50 -15 76 -32 33 -68 32 -94 -1z m62 -8 c-4 -6 1 -5 10 3 15 12 17 11 17 -7 0
-15 -9 -22 -31 -27 -17 -4 -33 -4 -36 -1 -3 3 -11 -1 -17 -10 -10 -13 -12 -13
-12 5 0 11 4 17 8 15 4 -3 8 0 8 7 0 16 31 38 47 32 7 -3 10 -10 6 -17z m47
-38 c0 -16 -3 -19 -11 -11 -6 6 -8 16 -5 22 11 17 16 13 16 -11z m-20 -26 c0
-5 -18 -9 -40 -9 -22 0 -40 4 -40 9 0 4 18 8 40 8 22 0 40 -4 40 -8z"/>
</g>
</svg>
