<?xml version="1.0" standalone="no"?>
<!DOCTYPE svg PUBLIC "-//W3C//DTD SVG 20010904//EN"
 "http://www.w3.org/TR/2001/REC-SVG-20010904/DTD/svg10.dtd">
<svg version="1.0" xmlns="http://www.w3.org/2000/svg"
 width="512.000000pt" height="512.000000pt" viewBox="0 0 512.000000 512.000000"
 preserveAspectRatio="xMidYMid meet">

<g transform="translate(0.000000,512.000000) scale(0.100000,-0.100000)"
fill="#000000" stroke="none">
<path d="M2818 5104 c-95 -23 -177 -70 -253 -148 -114 -115 -170 -252 -163
-397 l3 -67 -85 0 c-145 0 -258 -40 -359 -129 -224 -196 -253 -541 -65 -762
l34 -39 0 -114 c0 -107 2 -116 23 -136 36 -34 70 -27 175 35 l97 57 90 2 c50
1 114 9 143 17 239 72 411 303 400 538 l-3 69 88 0 88 0 102 -60 c57 -33 113
-60 126 -60 12 0 33 11 46 25 24 23 25 31 25 136 l0 111 40 51 c87 109 127
239 117 376 -26 337 -346 574 -669 495z m293 -177 c149 -73 244 -253 218 -415
-11 -74 -48 -148 -102 -208 -45 -50 -47 -54 -47 -113 0 -34 -2 -61 -4 -61 -2
0 -30 14 -62 31 -53 28 -66 30 -122 26 -235 -18 -417 134 -430 359 -9 166 62
299 198 369 68 36 113 45 206 42 74 -2 100 -8 145 -30z m-684 -598 c23 -7 46
-30 79 -76 29 -40 73 -84 114 -115 62 -45 69 -54 80 -100 13 -53 9 -148 -10
-210 -17 -58 -87 -154 -141 -194 -81 -59 -139 -76 -253 -75 -93 0 -103 -1
-151 -29 -29 -17 -55 -30 -59 -30 -3 0 -6 27 -6 60 0 56 -2 62 -46 112 -218
244 -102 603 216 667 49 10 126 5 177 -10z"/>
<path d="M2782 4763 c-15 -6 -42 -56 -42 -78 0 -9 21 -38 46 -65 l47 -50 -47
-50 c-50 -53 -54 -66 -31 -109 29 -57 81 -56 143 3 l47 44 47 -44 c59 -55 94
-58 132 -13 14 17 26 37 26 45 0 24 -26 67 -59 98 l-31 29 45 48 c49 52 53 65
30 108 -29 57 -84 56 -141 0 l-43 -42 -47 42 c-45 40 -82 50 -122 34z"/>
<path d="M2046 3999 c-52 -41 -23 -129 44 -129 67 0 96 88 44 129 -15 12 -34
21 -44 21 -10 0 -29 -9 -44 -21z"/>
<path d="M2271 4003 c-53 -45 -24 -133 44 -133 68 0 97 88 44 133 -12 9 -31
17 -44 17 -13 0 -32 -8 -44 -17z"/>
<path d="M2505 4008 c-29 -16 -35 -28 -35 -70 0 -27 6 -41 22 -52 78 -55 160
43 93 109 -26 27 -49 31 -80 13z"/>
<path d="M4255 4597 c-64 -22 -102 -45 -144 -88 l-39 -40 -53 15 c-216 65
-462 -61 -551 -282 -22 -55 -23 -68 -23 -322 0 -252 1 -268 23 -320 l22 -55
-22 -15 c-70 -47 -119 -95 -161 -156 -55 -80 -83 -154 -98 -259 -13 -87 4 -81
-180 -64 -105 9 -123 9 -144 -5 -44 -29 -46 -104 -4 -127 12 -6 93 -17 181
-25 528 -46 947 -151 1318 -330 167 -81 282 -157 382 -252 137 -131 198 -251
198 -392 0 -140 -67 -269 -206 -399 -67 -63 -235 -181 -258 -181 -7 0 -32 20
-56 45 -34 35 -105 91 -127 100 -2 1 7 26 19 56 20 49 23 76 26 284 4 263 -3
318 -55 418 -88 167 -288 269 -468 239 -136 -22 -278 -119 -338 -230 -53 -99
-59 -140 -55 -415 3 -237 4 -255 26 -301 12 -27 21 -50 20 -51 -2 -1 -19 -11
-40 -24 -58 -34 -150 -140 -186 -213 -35 -72 -62 -176 -62 -244 l0 -42 -52 -6
c-319 -38 -883 -37 -1180 1 l-48 6 0 47 c0 64 -34 190 -67 253 -15 29 -61 86
-100 127 l-73 74 0 317 c0 346 -5 382 -63 481 -62 107 -200 198 -332 220 -180
30 -381 -72 -468 -239 -52 -102 -57 -140 -57 -479 l0 -305 -63 -59 c-34 -33
-67 -59 -73 -60 -22 0 -191 118 -258 181 -180 168 -243 348 -186 530 54 176
247 358 525 497 402 200 917 321 1544 361 112 7 126 10 143 30 30 38 17 99
-26 119 -20 9 -147 4 -357 -13 l-86 -8 -11 76 c-24 160 -103 301 -216 384 -33
25 -62 46 -63 47 -2 1 7 27 19 57 20 48 22 77 26 278 6 314 -13 391 -125 511
-264 286 -723 139 -784 -250 -7 -44 -9 -150 -7 -269 4 -169 7 -205 26 -258 12
-34 22 -64 22 -65 0 -2 -27 -23 -61 -48 -102 -74 -175 -185 -209 -320 -16 -64
-16 -65 -57 -72 -97 -16 -201 -94 -247 -187 -36 -70 -46 -150 -46 -366 l0
-190 -45 -60 c-266 -352 -156 -735 296 -1033 47 -32 93 -61 102 -67 15 -9 15
-15 0 -77 l-17 -67 -48 -11 c-69 -14 -124 -45 -177 -98 -96 -97 -115 -181
-109 -497 4 -225 9 -248 62 -318 14 -19 50 -47 78 -63 l53 -29 538 -3 538 -3
232 147 c400 254 392 248 421 306 48 96 28 201 -52 269 l-41 35 87 -9 c117
-11 664 -14 836 -4 l139 8 -30 -28 c-102 -96 -97 -266 11 -345 22 -16 165
-108 317 -204 l277 -175 538 3 c534 3 539 3 580 25 88 47 143 129 144 214 0
56 -21 79 -72 79 -42 0 -62 -20 -77 -76 -6 -22 -22 -51 -37 -65 l-26 -24 -479
-3 -480 -3 3 283 c3 271 4 285 25 325 25 47 71 84 122 102 45 15 670 15 724 0
77 -21 138 -99 152 -194 9 -64 28 -85 75 -85 64 0 86 43 69 133 -26 146 -124
254 -265 293 l-61 16 -16 67 c-15 61 -15 67 0 76 166 102 288 200 367 293 220
261 231 543 31 807 l-45 60 0 190 c0 216 -10 296 -46 366 -46 93 -150 171
-247 187 -41 7 -41 8 -57 73 -10 37 -20 71 -24 77 -4 6 9 32 28 57 61 79 61
82 61 610 l0 480 -26 55 c-37 79 -72 115 -142 150 -74 36 -162 46 -222 27z
m166 -170 c71 -47 70 -37 67 -564 -2 -259 -6 -475 -11 -479 -4 -4 -26 10 -50
33 -33 31 -81 68 -114 88 -2 1 7 26 19 56 20 49 23 76 26 284 5 307 -11 379
-109 497 -21 26 -39 49 -39 52 0 3 17 17 37 31 50 34 125 35 174 2z m-3287
-154 c37 -52 76 -155 76 -203 0 -17 -1 -30 -3 -30 -1 0 -65 -13 -142 -30 -77
-16 -142 -30 -144 -30 -2 0 -1 32 1 70 7 97 52 188 116 235 26 19 50 35 54 35
4 0 23 -21 42 -47z m2668 15 c41 -54 66 -110 78 -177 6 -35 9 -65 7 -67 -8 -8
-290 -64 -295 -59 -3 3 -1 39 5 80 10 72 37 140 71 179 20 22 92 76 102 76 4
0 19 -15 32 -32z m-2274 -490 c-4 -173 -16 -212 -83 -286 -126 -140 -361 -128
-468 24 -43 61 -57 104 -64 200 l-6 82 59 12 c32 7 169 36 304 65 135 29 249
53 254 54 4 1 6 -68 4 -151z m2680 2 c-5 -143 -6 -152 -37 -214 -55 -113 -148
-171 -271 -170 -88 0 -145 22 -208 79 -64 57 -95 131 -100 236 l-4 87 53 12
c30 6 167 35 304 65 138 29 254 54 259 54 5 1 7 -64 4 -149z m-3249 -456 c158
-113 399 -107 541 12 l32 27 35 -18 c56 -31 139 -127 163 -192 26 -68 45 -182
33 -192 -4 -4 -69 -18 -143 -30 -273 -44 -615 -140 -820 -230 -52 -23 -101
-45 -108 -48 -11 -5 -13 37 -10 223 3 223 4 230 29 285 32 68 88 132 148 171
25 15 46 28 48 28 2 0 25 -16 52 -36z m2669 6 c87 -69 225 -102 343 -82 77 13
163 49 209 88 l29 25 38 -20 c54 -27 129 -111 161 -179 26 -56 27 -62 30 -284
2 -126 1 -228 -1 -228 -2 0 -37 15 -78 34 -97 44 -275 107 -424 150 -129 37
-423 100 -518 111 -35 5 -61 13 -64 21 -9 23 17 146 41 200 13 28 41 71 62 94
40 45 110 100 126 100 5 0 26 -13 46 -30z m-3098 -595 l0 -164 -90 -61 c-50
-33 -93 -60 -95 -60 -10 0 -5 241 6 291 17 78 97 157 162 159 15 0 17 -14 17
-165z m4123 152 c51 -22 103 -87 116 -146 11 -51 16 -291 6 -291 -3 0 -46 27
-95 61 l-90 60 0 165 c0 181 -1 177 63 151z m-3530 -677 c14 -16 38 -55 54
-87 l28 -58 0 -495 c0 -452 -2 -498 -18 -533 l-17 -37 -101 0 -100 0 -25 54
-25 54 3 474 3 473 27 50 c26 49 59 86 108 118 32 22 34 22 63 -13z m2681 -5
c15 -19 39 -61 53 -93 25 -54 27 -67 31 -259 3 -127 0 -227 -7 -270 -20 -117
-85 -223 -128 -209 -34 11 -105 90 -132 146 -26 54 -26 59 -26 275 0 251 9
296 74 368 33 37 86 77 102 77 4 0 19 -16 33 -35z m-165 -940 c154 -111 385
-106 539 12 35 26 35 26 68 8 77 -41 167 -165 188 -257 l6 -27 -283 -3 -283
-3 -65 -32 c-129 -64 -198 -172 -207 -324 -2 -49 -8 -89 -11 -88 -3 0 -58 33
-121 73 l-115 73 1 159 c1 184 16 239 83 329 35 46 120 115 143 115 4 0 30
-16 57 -35z m-2854 -247 c6 -16 1 -18 -44 -18 -46 0 -51 2 -51 23 0 12 14 51
31 87 l32 65 12 -70 c7 -38 16 -78 20 -87z m955 35 c16 -52 20 -93 20 -208 l0
-143 -120 -76 -120 -75 0 73 c0 40 -6 94 -14 120 l-14 47 54 54 c67 67 123
177 131 261 l6 57 18 -22 c11 -13 28 -52 39 -88z m-519 -214 c51 -18 97 -55
122 -102 21 -40 22 -54 25 -324 l3 -283 -468 0 c-503 0 -497 0 -537 53 -20 27
-21 40 -21 271 l0 243 30 48 c22 36 45 57 84 77 l53 28 338 0 c225 0 348 -4
371 -11z m747 -255 c30 -21 30 -73 0 -101 -21 -19 -435 -283 -444 -283 -2 0
-4 38 -4 84 l0 84 187 116 c191 119 219 130 261 100z m1443 -101 l189 -116 0
-84 c0 -45 -3 -83 -6 -83 -3 0 -106 64 -229 142 -204 129 -245 163 -245 197 0
5 9 20 21 35 36 46 64 37 270 -91z"/>
<path d="M2715 2520 c-123 -17 -257 -88 -335 -178 -22 -26 -59 -83 -81 -127
-105 -213 -65 -452 105 -620 115 -114 235 -165 391 -165 79 0 81 -1 172 -54
112 -66 127 -71 162 -56 41 17 51 49 51 169 0 89 3 111 17 122 31 26 92 130
115 197 31 93 32 228 0 329 -28 90 -108 212 -175 265 -122 96 -272 138 -422
118z m248 -188 c77 -38 143 -106 184 -190 26 -52 28 -67 28 -167 0 -99 -3
-115 -27 -165 -15 -30 -48 -79 -74 -108 -41 -47 -47 -59 -51 -112 -3 -33 -7
-60 -10 -60 -2 0 -27 13 -56 29 -48 27 -59 29 -152 29 -81 -1 -111 3 -158 21
-112 44 -196 133 -232 246 -25 82 -18 211 17 287 69 151 205 231 379 225 74
-3 96 -8 152 -35z"/>
<path d="M2539 2038 c-25 -8 -49 -44 -49 -72 0 -7 9 -25 21 -40 37 -47 110
-31 125 28 14 56 -41 103 -97 84z"/>
<path d="M2993 2042 c-50 -8 -70 -85 -33 -122 45 -45 123 -13 123 50 0 49 -39
80 -90 72z"/>
<path d="M2737 2022 c-23 -25 -22 -85 1 -105 10 -10 35 -17 55 -17 41 0 67 27
67 70 0 14 -7 36 -16 48 -20 28 -83 31 -107 4z"/>
</g>
</svg>
