<?xml version="1.0" standalone="no"?>
<!DOCTYPE svg PUBLIC "-//W3C//DTD SVG 20010904//EN"
 "http://www.w3.org/TR/2001/REC-SVG-20010904/DTD/svg10.dtd">
<svg version="1.0" xmlns="http://www.w3.org/2000/svg"
 width="512.000000pt" height="512.000000pt" viewBox="0 0 512.000000 512.000000"
 preserveAspectRatio="xMidYMid meet">

<g transform="translate(0.000000,512.000000) scale(0.100000,-0.100000)"
fill="#000000" stroke="none">
<path d="M1140 5025 c-231 -50 -437 -257 -485 -490 -22 -105 -22 -3516 0
-3618 40 -190 179 -364 360 -452 125 -60 174 -65 645 -65 l420 0 0 -160 0
-160 920 0 920 0 0 160 0 160 255 0 256 0 24 25 c30 29 31 45 5 143 -42 166
-54 270 -54 472 0 202 12 306 54 472 19 74 20 121 20 1778 l0 1701 -25 24 -24
25 -1613 -1 c-1336 0 -1624 -3 -1678 -14z m3180 -1745 l0 -1600 -194 0 -194 0
44 77 c90 158 151 336 174 509 8 63 10 316 8 879 l-3 790 -27 50 c-32 60 -87
114 -148 146 -38 20 -60 24 -140 24 -71 0 -103 -4 -126 -17 l-32 -17 -4 107
c-3 91 -8 114 -30 157 -35 66 -90 118 -162 151 -52 23 -67 26 -140 22 -56 -3
-94 -11 -122 -26 l-42 -21 -13 32 c-7 18 -32 52 -54 76 -92 101 -246 131 -370
72 -65 -30 -140 -103 -157 -151 l-10 -29 -41 21 c-29 15 -67 23 -123 26 -73 4
-88 1 -140 -22 -72 -33 -127 -84 -162 -151 l-27 -50 -3 -909 c-2 -644 -6 -913
-13 -923 -6 -7 -19 -13 -28 -13 -9 0 -105 74 -213 164 -251 207 -278 221 -438
221 -108 0 -119 -2 -180 -31 -84 -40 -146 -96 -201 -181 l-44 -67 -3 922 c-2
1018 -3 1004 60 1132 39 81 169 216 213 223 17 2 717 5 1558 6 l1527 1 0
-1600z m-1347 1247 c70 -53 67 -22 67 -751 l0 -656 80 0 80 0 0 576 c0 641 -2
618 68 672 51 39 133 39 184 0 70 -54 68 -31 68 -672 l0 -576 80 0 80 0 0 376
c0 418 0 420 66 471 76 57 188 30 232 -57 l22 -44 0 -731 c0 -471 -4 -762 -11
-820 -23 -185 -73 -328 -180 -515 -87 -151 -142 -285 -175 -427 -21 -89 -27
-143 -31 -300 l-6 -193 -597 0 -598 0 -4 222 c-4 196 -7 230 -26 281 -34 93
-81 172 -135 230 -29 30 -285 257 -569 506 -285 248 -518 455 -518 459 0 20
64 81 111 107 47 26 64 30 129 30 101 -1 125 -14 350 -203 102 -85 205 -164
229 -175 91 -40 199 0 248 92 l23 44 0 900 c0 1001 -4 940 68 995 51 39 133
39 184 0 70 -54 68 -31 68 -672 l0 -576 80 0 80 0 2 668 3 669 27 35 c55 72
152 88 221 35z m-1445 -2507 l384 -335 -389 -5 c-416 -6 -420 -7 -531 -64
l-32 -17 0 461 0 461 93 -83 c50 -46 264 -234 475 -418z m610 -537 c83 -106
102 -185 102 -420 l0 -183 -55 0 c-46 0 -60 -4 -80 -25 -24 -23 -25 -29 -25
-160 l0 -136 -442 3 c-429 4 -445 4 -502 26 -226 84 -363 305 -327 524 6 40
25 101 41 136 36 77 133 178 208 216 102 52 132 54 609 55 l441 1 30 -37z
m2141 -49 c-46 -224 -49 -516 -9 -739 10 -60 20 -116 20 -122 0 -10 -43 -13
-185 -13 l-185 0 0 135 c0 131 -1 137 -25 160 -20 21 -34 25 -80 25 l-55 0 0
40 0 40 170 0 170 0 0 80 0 80 -170 0 -170 0 5 43 c18 131 30 190 52 262 14
44 27 83 30 88 2 4 104 7 227 7 l222 0 -17 -86z m-519 -955 l0 -240 -417 3
c-465 5 -468 5 -618 77 -99 47 -169 102 -238 186 -49 59 -117 179 -117 205 0
7 229 10 695 10 l695 0 0 -241z"/>
<path d="M1200 1280 l0 -80 400 0 400 0 0 80 0 80 -400 0 -400 0 0 -80z"/>
<path d="M1360 960 l0 -80 320 0 320 0 0 80 0 80 -320 0 -320 0 0 -80z"/>
</g>
</svg>
