<?xml version="1.0" standalone="no"?>
<!DOCTYPE svg PUBLIC "-//W3C//DTD SVG 20010904//EN"
 "http://www.w3.org/TR/2001/REC-SVG-20010904/DTD/svg10.dtd">
<svg version="1.0" xmlns="http://www.w3.org/2000/svg"
 width="512.000000pt" height="512.000000pt" viewBox="0 0 512.000000 512.000000"
 preserveAspectRatio="xMidYMid meet">

<g transform="translate(0.000000,512.000000) scale(0.100000,-0.100000)"
fill="#000000" stroke="none">
<path d="M4670 4726 l-105 -104 -490 5 c-559 7 -591 4 -716 -59 -136 -68 -247
-201 -284 -343 -8 -33 -20 -140 -25 -239 -5 -98 -11 -181 -13 -182 -2 -2 -26
3 -53 10 -87 26 -201 36 -399 36 -431 0 -597 -49 -793 -234 -84 -79 -173 -234
-213 -368 -20 -65 -23 -102 -27 -340 l-4 -268 96 0 96 0 0 305 0 306 38 -7
c20 -3 138 -26 262 -49 124 -24 476 -89 783 -146 l557 -103 0 -153 0 -153 95
0 95 0 0 240 c0 271 -10 345 -64 470 -42 99 -94 176 -175 260 l-66 68 11 74
c6 40 19 126 29 191 l17 117 334 0 335 0 49 -39 c60 -48 139 -87 211 -106 64
-17 208 -19 262 -4 22 6 40 9 42 7 2 -2 17 -95 33 -207 17 -112 33 -205 35
-207 2 -3 50 10 105 27 97 31 101 33 97 58 -2 14 -10 130 -16 258 l-11 232 31
40 c124 156 145 395 51 581 -28 56 -84 130 -99 130 -3 0 -53 -47 -111 -104z"/>
<path d="M909 4606 c-329 -87 -580 -335 -670 -662 -17 -63 -22 -116 -26 -266
l-5 -188 36 0 36 0 0 118 c0 64 3 140 6 169 l7 52 52 -30 c51 -29 186 -69 232
-69 21 0 23 4 23 49 0 72 26 213 61 326 78 256 225 454 377 510 l37 14 -40 0
c-22 0 -79 -10 -126 -23z"/>
<path d="M3592 3615 c-43 -19 -65 -69 -51 -118 24 -88 150 -96 185 -12 36 87
-48 168 -134 130z m112 -44 c23 -25 13 -59 -20 -67 -30 -8 -54 11 -54 42 0 22
22 43 46 44 6 0 19 -9 28 -19z"/>
<path d="M4193 3623 c-12 -2 -34 -18 -48 -34 -34 -42 -33 -89 3 -130 24 -26
36 -32 72 -32 36 0 48 6 72 32 66 74 0 184 -99 164z m101 -52 c23 -25 13 -59
-20 -67 -30 -8 -54 11 -54 42 0 22 22 43 46 44 6 0 19 -9 28 -19z"/>
<path d="M783 3476 c-90 -40 -62 -176 36 -176 58 0 96 35 96 89 0 71 -67 115
-132 87z m111 -48 c14 -24 -3 -52 -34 -56 -41 -6 -60 46 -26 71 17 11 48 4 60
-15z"/>
<path d="M1425 3481 c-61 -25 -80 -108 -36 -155 55 -58 161 -17 161 61 0 47
-16 72 -55 89 -39 16 -42 16 -70 5z m109 -53 c16 -26 -4 -53 -40 -53 -23 0
-30 5 -32 23 -7 47 47 69 72 30z"/>
<path d="M312 3040 c-12 -5 -40 -11 -62 -12 l-40 -3 0 -182 0 -183 225 0 c124
0 225 1 225 3 0 2 -29 27 -65 56 -79 63 -168 172 -215 264 -19 37 -37 67 -40
66 -3 0 -15 -4 -28 -9z"/>
<path d="M2184 2461 c-68 -29 -86 -127 -34 -179 49 -50 111 -50 160 0 64 63
24 174 -65 183 -22 3 -50 1 -61 -4z m118 -48 c21 -18 24 -53 6 -71 -27 -27
-88 -3 -88 34 0 17 35 54 52 54 6 0 20 -7 30 -17z"/>
<path d="M2844 2460 c-37 -15 -64 -59 -64 -106 0 -85 89 -133 168 -92 48 25
68 111 36 156 -30 44 -91 62 -140 42z m126 -50 c24 -24 25 -43 4 -64 -18 -19
-55 -21 -72 -4 -17 17 -15 54 4 72 21 21 40 20 64 -4z"/>
<path d="M3905 2230 c-4 -6 -4 -28 0 -49 3 -21 1 -58 -5 -82 -9 -33 -9 -52 0
-80 12 -35 5 -66 -109 -484 l-121 -446 126 -160 c69 -88 130 -159 134 -157 17
6 250 309 250 324 0 9 -54 214 -120 457 l-121 440 52 86 c29 47 54 89 55 92 4
7 -108 69 -124 69 -6 0 -14 -5 -17 -10z"/>
<path d="M1942 1192 c-104 -34 -113 -39 -109 -60 3 -16 -4 -27 -27 -42 -47
-29 -158 -147 -201 -214 -89 -140 -124 -265 -132 -480 l-6 -152 84 -36 c297
-127 606 -195 929 -205 360 -11 706 50 1035 184 l120 49 0 169 c0 199 -11 253
-80 391 -53 105 -128 201 -212 269 -37 30 -58 55 -58 68 0 18 -18 27 -123 60
-68 22 -124 38 -126 36 -1 -2 -34 -114 -73 -249 -187 -645 -248 -850 -253
-850 -3 0 -34 112 -69 250 l-63 249 62 100 c34 55 59 105 56 110 -9 15 -117
71 -136 71 -19 0 -127 -56 -136 -71 -3 -5 22 -55 56 -110 l62 -100 -63 -247
c-34 -136 -65 -250 -68 -254 -6 -7 -50 140 -250 827 -52 182 -82 270 -92 272
-8 0 -65 -15 -127 -35z"/>
</g>
</svg>
